<?xml version="1.0" encoding="UTF-8"?>
<svg id="Layer_2" data-name="Layer 2" xmlns="http://www.w3.org/2000/svg" viewBox="0 0 784.26 630.29">
  <defs>
    <style>
      .cls-1 {
        fill: #fff;
      }

      .cls-2 {
        fill: #007fff;
      }

      .cls-3 {
        fill: #ffccb2;
      }
    </style>
  </defs>
  <g id="Layer_1-2" data-name="Layer 1">
    <g>
      <path d="M0,278.24c-.06-.62,.16-1.24,.6-1.69,25.09-25.09,97.99-32.71,107.89-33.64,9.92-17.1,21.6-33.72,35.1-49.79,33.33-39.73,76.67-75.35,128.82-105.86C395.14,15.43,556.63-18.45,640.08,10.12c.79,.27,1.34,.98,1.41,1.81,.06,.83-.36,1.62-1.09,2.02-53.33,29-125.31,110.6-143.75,177.8,62.38-5.01,126.48,8.05,180.82,36.96,51.24,27.26,90.11,66.73,106.64,108.26,.27,.68,.18,1.43-.25,2.02-.44,.58-1.13,.9-1.85,.85-113.64-8.36-194.27,44.96-208.2,54.89,89.7,70.54,145.13,155.87,145.13,194.95,0,.72-.36,1.39-.97,1.78-.61,.38-1.38,.43-2.03,.11-110.3-53.08-235.46-20.1-286.48,1.8-.09,.04-.18,.1-.26,.14-.11,.06-.24,.07-.36,.12-3.64,1.46-6.83,3.05-9.63,4.45-16.88,8.44-61.81,28.42-114.41,31.71-57.87,3.62-107.04-13.51-146.33-50.8-5.38,1.09-11.14,1.72-17.18,1.72-28.43,0-51.47-13.12-51.47-29.31,0-11.36,11.36-21.18,27.95-26.05-10.55-16.03-19.26-30.09-21.05-33.01-31.81-16.22-60.82-83.75-54.37-124.66C36.63,362.43,5.14,331.23,0,278.24Z"/>
      <path class="cls-2" d="M105.32,246.85c-15.94,28.53-26.93,58.38-32.79,89.24-15.52,.62-25.8,9.63-29.83,26.18-8.38-8.29-34.16-37.3-39.01-83.97,22.65-21.53,85.26-29.67,101.64-31.45Zm101.09,21.21c.73,.26,4.83-12.3,14.96-27.4s29.68-30.4,50.8-29.65c44.44-2.52,79.81,40.44,79.49,39.23,.69-.43-2.4-7.18-13.57-17.64s-31.33-26.67-64.93-26.66c-35.15,.01-51.86,26.25-58.77,39.35-7.59,14.38-8.53,22.66-7.98,22.77Zm203.2-60.94c.7,.7,1.79,.81,2.62,.28s1.18-1.58,.82-2.51c-.83-2.17-20.53-53.4-45.26-78.19-.54-.54-1.32-.74-2.05-.53-30.24,8.54-56.05,45.91-57.14,47.49-.44,.64-.5,1.48-.13,2.16s1.08,1.12,1.86,1.12c31.88,0,77.01,7.91,99.29,30.18Zm33.01,14.72c.19,1.14,1.27,1.92,2.4,1.73s1.92-1.27,1.73-2.41c-.75-4.43-18.54-108.8-73.2-128.53-.35-.13-.72-.16-1.08-.09-47.81,8.67-94.52,70.04-96.49,72.65-.7,.93-.51,2.24,.42,2.94s2.24,.51,2.94-.42c.47-.63,47.26-62.36,93.3-70.92,51.93,19.46,69.8,123.99,69.98,125.05ZM74.26,340.22c.5,0,.97-.17,1.34-.48,.22,.12,.44,.24,.69,.33,10.2,.82,41.49,24.17,41.65,24.35,1.6-1.27-26.41-26.23-40.5-27.18-.33-.07-.57-.08-.84-.1,9.53-50.46,32.93-98.19,69.59-141.88,33.03-39.36,76.01-74.67,127.73-104.94C407.11,12.36,559.46-10.26,633.53,12.11c-54.37,31.75-125.63,113.82-142.36,180.87-.16,.66,0,1.36,.44,1.88s1.1,.79,1.78,.73c135.11-12.2,251.99,62.36,284.87,139.32-124.37-7.84-208.98,56.9-209.82,57.55-.51,.4-.81,1.01-.81,1.65s.3,1.27,.81,1.66c87.75,67.8,142.54,150.23,145.54,190.04-99.48-46.31-210.09-24.66-268.77-3.84,34.79-27.58,44.24-67.67,46.76-85.23,3.88-27.1-.47-45.67-10.28-60.14-9.52-14.05-26.43-23.89-43.88-22.88-17.2,1-34.93,12.27-55.54,36.96,3.06-13.14,5.51-31.34,3.87-59.38-1.43-24.44-9.97-60.8-32.98-93.97-18.3-26.38-39.19-49.29-79.81-51.62-15.18-.87-31.15,5.46-42.61,16.74-26.99,26.55-42.76,83.94-38.76,131.83,3.48,41.61,6,71.67-3.99,80.17-3.46,2.94-8.75,3.48-16.17,1.61-1.74-.44-3.51-1.14-5.31-2.06-.93-.71-2.33-1.69-4.58-3.21-1.27-.86-2.73-1.86-4.24-2.91-2.38-2-5.08-4.33-8.07-7.33-.1-.1-.19-.19-.3-.29-8.55-8.8-17.35-20.09-26.01-31.21-15.73-20.2-30.59-39.29-43.04-41.67-5.38-1.03-8.34,1.45-9.87,3.71-9.63,14.18,6.93,65.95,21.2,92.91-28.43-21.36-53.16-84.77-44.95-120.18,3.63-15.66,12.92-23.6,27.63-23.6Z"/>
      <path class="cls-3" d="M385.74,536.51c23.24-13.03,41.28-31.53,48.08-48.55,.62-1.55,1.17-3.97,2.11-5.14,10.54,4.69,13.43,16.12,14.7,15.71,1.18,3.43,.71-15.47-16.1-22.71s-30.58,1.74-30.06,1.93c.28,1.58,15.53-1.85,26.41,2.78-.38,.83-.81,1.84-1.15,3.04-3.19,11.43-22.24,35.41-45.59,49.94s-46.36,22.63-45.9,23.66c-.02,.14,24.27-7.65,47.5-20.67Zm-193.62,14.35c0-5.95-3.13-11.47-8.47-16.1,6.95-6.22,22.98-16.74,49.92-13.53,60.35,7.19,108.57-13.22,147.45-62.38,21.68-27.41,36.94-39.3,57.24-40.47,15.76-.91,32.46,10.51,39.19,20.22,9.77,14.1,14.05,31.68,10.35,57.53-2.78,19.4-14.28,67.19-60.86,92.92-3.84,1.65-7.29,3.24-10.26,4.72-16.64,8.33-60.96,28.03-112.79,31.27-55.66,3.48-103.1-12.62-141.18-47.76,17.37-4.7,29.4-14.76,29.4-26.44ZM365.7,130.58c17.99,18.57,33.55,52.23,40.11,67.67-28.53-21.95-74.86-25.07-91.39-25.45,6.88-9.14,27.99-35,51.28-42.22Z"/>
      <path class="cls-1" d="M139.28,533.4c11.24,0,20.35,3.8,20.35,8.51s-9.11,8.5-20.35,8.5-20.34-3.8-20.34-8.5,9.11-8.51,20.34-8.51Zm156.41-141.08c14.93,35.01,35.47,59.8,45.87,55.36s6.7-36.41-8.23-71.43c-14.94-35.01-35.48-59.8-45.86-55.37s-6.72,36.41,8.22,71.44Zm-221.85,1.14c.78-1.15,2.21-2.6,5.62-1.95,10.89,2.1,25.96,21.42,40.51,40.13,2.59,3.33,5.19,6.67,7.81,9.96,0,.03,.01,.08,.02,.12,2.55,25.62,30.06,78.09,46.29,81.4,4.99,1.02,9.14-2.04,9.57-8.65,.7-10.87-1.76-25.05-5.04-33.17,4.99,.16,8.99-1.03,12.07-3.65,11.12-9.46,9.52-35.2,5.47-83.71s12.34-102.21,38.54-127.98c10.54-10.36,24.05-15.17,39.45-14.24,37.15,2.25,57.76,23.55,75.29,48.88,21.95,31.72,30.88,70.35,32.5,90.71,3.34,42.02-3.99,60.49-4.57,65.4-37.83,47.58-84.71,67.33-143.3,60.35-29.5-3.51-46.63,8.26-53.86,15.06-9.45-6.45-23.65-10.56-39.56-10.56-6.79,0-13.27,.76-19.2,2.13-12.02-18.21-21.88-34.24-22.08-34.56,0,0,0,0,0-.01-.01,0,0-.01,0-.01-15.3-24.1-34.37-82.63-25.52-95.65Zm221.65-54.3c3.67-1.49,10.49,6.76,15.24,18.42s5.62,22.34,1.95,23.84-10.49-6.75-15.24-18.42-5.62-22.34-1.95-23.84Zm-138.68,140.28c-1.51-3.49-2.49-6.97-3.18-10.15,1.23,.91,2.43,1.78,3.62,2.62,1.74,1.47,3.49,2.78,5.2,4.01,1.94,1.4,3.63,2.58,5.17,3.5,3.71,10.9,3.8,14.16,.78,14.83-1.43,.32-7-4.2-11.58-14.81Z"/>
    </g>
  </g>
</svg>